<svg width="16" height="16" viewBox="0 0 16 16" fill="none" xmlns="http://www.w3.org/2000/svg">
<path fill-rule="evenodd" clip-rule="evenodd" d="M10.5 2C8.567 2 7 3.567 7 5.5C7 7.433 8.567 9 10.5 9C12.433 9 14 7.433 14 5.5C14 3.567 12.433 2 10.5 2ZM6 5.5C6 3.01472 8.01472 1 10.5 1C12.9853 1 15 3.01472 15 5.5C15 7.98528 12.9853 10 10.5 10C8.01472 10 6 7.98528 6 5.5Z" fill="#EFEFEC"/>
<path fill-rule="evenodd" clip-rule="evenodd" d="M7.31515 2.31521C7.51041 2.11995 7.82699 2.11995 8.02225 2.31521L13.6848 7.97771C13.88 8.17297 13.88 8.48955 13.6848 8.68482C13.4895 8.88008 13.1729 8.88008 12.9776 8.68482L7.31515 3.02232C7.11989 2.82705 7.11989 2.51047 7.31515 2.31521Z" fill="#EFEFEC"/>
<path fill-rule="evenodd" clip-rule="evenodd" d="M6.60355 9.39645C6.79882 9.59171 6.79882 9.90829 6.60355 10.1036L5.85355 10.8536C5.65829 11.0488 5.34171 11.0488 5.14645 10.8536C4.95118 10.6583 4.95118 10.3417 5.14645 10.1464L5.89645 9.39645C6.09171 9.20118 6.40829 9.20118 6.60355 9.39645Z" fill="#EFEFEC"/>
<path fill-rule="evenodd" clip-rule="evenodd" d="M6.84562 5.71553C7.06831 5.87882 7.11646 6.19172 6.95317 6.41441L2.15942 12.9519L2.15979 12.9527L3.04777 13.8407L9.58554 9.04678C9.80823 8.88349 10.1211 8.93164 10.2844 9.15433C10.4477 9.37702 10.3996 9.68992 10.1769 9.85321L3.6413 14.6456C3.44871 14.7892 3.21056 14.8582 2.97093 14.8398C2.73138 14.8214 2.50666 14.7168 2.33832 14.5455L1.45446 13.6616C1.28316 13.4933 1.17858 13.2686 1.16016 13.029C1.14172 12.7894 1.21076 12.5512 1.35441 12.3587L6.14674 5.82308C6.31003 5.60039 6.62293 5.55224 6.84562 5.71553Z" fill="#EFEFEC"/>
</svg>
