<svg width="16" height="16" viewBox="0 0 16 16" fill="none" xmlns="http://www.w3.org/2000/svg">
<path d="M6.48214 12.8769C7.86839 12.8769 9.14673 12.4286 10.1926 11.6816L14.1273 15.6162C14.3099 15.7988 14.5506 15.8901 14.8079 15.8901C15.3475 15.8901 15.7293 15.4751 15.7293 14.9438C15.7293 14.6948 15.6463 14.4541 15.4637 14.2797L11.554 10.3617C12.3758 9.2826 12.8655 7.94615 12.8655 6.49349C12.8655 2.98222 9.99342 0.110107 6.48214 0.110107C2.97917 0.110107 0.0987549 2.97392 0.0987549 6.49349C0.0987549 10.0048 2.97086 12.8769 6.48214 12.8769ZM6.48214 11.4989C3.74285 11.4989 1.4767 9.23279 1.4767 6.49349C1.4767 3.7542 3.74285 1.48806 6.48214 1.48806C9.22144 1.48806 11.4876 3.7542 11.4876 6.49349C11.4876 9.23279 9.22144 11.4989 6.48214 11.4989Z" fill="#EFEFEC"/>
</svg>
