<svg width="16" height="16" viewBox="0 0 16 16" fill="none" xmlns="http://www.w3.org/2000/svg">
<path fill-rule="evenodd" clip-rule="evenodd" d="M8 0.5C8.15524 0.5 8.30167 0.572102 8.39632 0.695145L13.3963 7.19514C13.5125 7.34613 13.5327 7.54998 13.4486 7.72088C13.3644 7.89177 13.1905 8 13 8H11.5223L14.3947 11.693C14.5119 11.8438 14.5331 12.0481 14.4492 12.2197C14.3653 12.3912 14.191 12.5 14 12.5H2C1.80904 12.5 1.63475 12.3912 1.55085 12.2197C1.46694 12.0481 1.48809 11.8438 1.60533 11.693L4.47768 8H3C2.80952 8 2.63558 7.89177 2.55144 7.72088C2.46729 7.54998 2.48755 7.34613 2.60369 7.19514L7.60369 0.695145C7.69834 0.572102 7.84477 0.5 8 0.5ZM4.01544 7H5.5C5.69097 7 5.86526 7.10878 5.94916 7.28032C6.03306 7.45187 6.01192 7.65623 5.89468 7.80697L3.02232 11.5H12.9777L10.1053 7.80697C9.98809 7.65623 9.96694 7.45187 10.0508 7.28032C10.1347 7.10878 10.309 7 10.5 7H11.9846L8 1.82006L4.01544 7Z" fill="#85909A"/>
<path fill-rule="evenodd" clip-rule="evenodd" d="M8 11.5C8.27614 11.5 8.5 11.7239 8.5 12V15C8.5 15.2761 8.27614 15.5 8 15.5C7.72386 15.5 7.5 15.2761 7.5 15V12C7.5 11.7239 7.72386 11.5 8 11.5Z" fill="#85909A"/>
</svg>
