<svg width="16" height="16" viewBox="0 0 16 16" fill="none" xmlns="http://www.w3.org/2000/svg">
<path fill-rule="evenodd" clip-rule="evenodd" d="M11.3682 9.40918C10.6778 9.40918 10.1182 9.96882 10.1182 10.6592C10.1182 11.3495 10.6778 11.9092 11.3682 11.9092C12.0585 11.9092 12.6182 11.3495 12.6182 10.6592C12.6182 9.96882 12.0585 9.40918 11.3682 9.40918ZM9.11816 10.6592C9.11816 9.41654 10.1255 8.40918 11.3682 8.40918C12.6108 8.40918 13.6182 9.41654 13.6182 10.6592C13.6182 11.9018 12.6108 12.9092 11.3682 12.9092C10.1255 12.9092 9.11816 11.9018 9.11816 10.6592Z" fill="#85909A"/>
<path fill-rule="evenodd" clip-rule="evenodd" d="M3.36816 11.4092C2.67781 11.4092 2.11816 11.9688 2.11816 12.6592C2.11816 13.3495 2.67781 13.9092 3.36816 13.9092C4.05852 13.9092 4.61816 13.3495 4.61816 12.6592C4.61816 11.9688 4.05852 11.4092 3.36816 11.4092ZM1.11816 12.6592C1.11816 11.4165 2.12552 10.4092 3.36816 10.4092C4.6108 10.4092 5.61816 11.4165 5.61816 12.6592C5.61816 13.9018 4.6108 14.9092 3.36816 14.9092C2.12552 14.9092 1.11816 13.9018 1.11816 12.6592Z" fill="#85909A"/>
<path fill-rule="evenodd" clip-rule="evenodd" d="M13.6034 4.78791C13.6703 5.05581 13.5074 5.32727 13.2396 5.39425L5.23955 7.39425C4.97165 7.46122 4.70019 7.29834 4.63321 7.03044C4.56624 6.76255 4.72912 6.49108 4.99701 6.4241L12.997 4.4241C13.2649 4.35713 13.5364 4.52001 13.6034 4.78791Z" fill="#85909A"/>
<path fill-rule="evenodd" clip-rule="evenodd" d="M13.4259 1.51508C13.5472 1.60984 13.6182 1.75522 13.6182 1.90918V10.6592C13.6182 10.9353 13.3943 11.1592 13.1182 11.1592C12.842 11.1592 12.6182 10.9353 12.6182 10.6592V2.54957L5.61816 4.29957V12.6592C5.61816 12.9353 5.39431 13.1592 5.11816 13.1592C4.84202 13.1592 4.61816 12.9353 4.61816 12.6592V3.90918C4.61816 3.67975 4.77431 3.47976 4.9969 3.42411L12.9969 1.42411C13.1463 1.38677 13.3045 1.42033 13.4259 1.51508Z" fill="#85909A"/>
</svg>
