<svg width="16" height="16" viewBox="0 0 16 16" fill="none" xmlns="http://www.w3.org/2000/svg">
<path fill-rule="evenodd" clip-rule="evenodd" d="M5.5 9.5C4.39543 9.5 3.5 10.3954 3.5 11.5C3.5 12.6046 4.39543 13.5 5.5 13.5C6.60457 13.5 7.5 12.6046 7.5 11.5C7.5 10.3954 6.60457 9.5 5.5 9.5ZM2.5 11.5C2.5 9.84315 3.84315 8.5 5.5 8.5C7.15685 8.5 8.5 9.84315 8.5 11.5C8.5 13.1569 7.15685 14.5 5.5 14.5C3.84315 14.5 2.5 13.1569 2.5 11.5Z" fill="#85909A"/>
<path fill-rule="evenodd" clip-rule="evenodd" d="M7.70167 2.09886C7.82847 2.00451 7.99242 1.97567 8.14381 2.02109L13.1438 3.52109C13.3553 3.58454 13.5001 3.7792 13.5001 4V7C13.5001 7.15806 13.4254 7.3068 13.2986 7.40115C13.1718 7.4955 13.0078 7.52433 12.8565 7.47892L8.50013 6.17202V11.5C8.50013 11.7761 8.27627 12 8.00013 12C7.72399 12 7.50013 11.7761 7.50013 11.5V5.51163C7.49996 5.50403 7.49996 5.49641 7.50013 5.48877V2.5C7.50013 2.34195 7.57486 2.1932 7.70167 2.09886ZM8.50013 5.12799L12.5001 6.32799V4.37202L8.50013 3.17202V5.12799Z" fill="#85909A"/>
</svg>
