<svg width="16" height="16" viewBox="0 0 16 16" fill="none" xmlns="http://www.w3.org/2000/svg">
<path fill-rule="evenodd" clip-rule="evenodd" d="M2.02343 10.3484C2.10715 10.0853 2.38835 9.93982 2.65149 10.0235L13.6515 13.5235C13.9146 13.6073 14.0601 13.8885 13.9764 14.1516C13.8926 14.4148 13.6114 14.5602 13.3483 14.4765L2.34829 10.9765C2.08515 10.8927 1.9397 10.6116 2.02343 10.3484Z" fill="#85909A"/>
<path fill-rule="evenodd" clip-rule="evenodd" d="M13.9764 10.3484C14.0601 10.6116 13.9146 10.8927 13.6515 10.9765L2.65149 14.4765C2.38835 14.5602 2.10715 14.4148 2.02343 14.1516C1.9397 13.8885 2.08515 13.6073 2.34829 13.5235L13.3483 10.0235C13.6114 9.93982 13.8926 10.0853 13.9764 10.3484Z" fill="#85909A"/>
<path fill-rule="evenodd" clip-rule="evenodd" d="M8.27735 5.58397L8 6L7.72265 5.58397C7.8906 5.47201 8.1094 5.47201 8.27735 5.58397ZM7.72236 6.41584C7.72172 6.4154 7.72142 6.4152 7.72146 6.41523L7.72179 6.41545L7.72215 6.41569M8 6.63743C8.11033 6.73507 8.24066 6.86156 8.37037 7.0129C8.7076 7.40633 9 7.91895 9 8.5C9 8.76522 8.89464 9.01957 8.70711 9.20711C8.51957 9.39464 8.26522 9.5 8 9.5C7.73478 9.5 7.48043 9.39464 7.29289 9.20711C7.10536 9.01957 7 8.76522 7 8.5C7 7.91895 7.2924 7.40633 7.62963 7.0129C7.75934 6.86156 7.88967 6.73507 8 6.63743ZM7.72235 5.58417C7.7225 5.58407 7.72265 5.58397 8 6C8.27735 5.58397 8.2775 5.58407 8.27765 5.58417L8.27798 5.5844L8.27875 5.58491L8.28071 5.58623L8.28625 5.58999L8.30358 5.60198C8.31782 5.61195 8.33733 5.62586 8.36138 5.64361C8.40942 5.67907 8.47582 5.73004 8.55447 5.79558C8.71109 5.9261 8.91986 6.11738 9.12963 6.3621C9.5424 6.84367 10 7.58105 10 8.5C10 9.03043 9.78929 9.53914 9.41421 9.91421C9.03914 10.2893 8.53043 10.5 8 10.5C7.46957 10.5 6.96086 10.2893 6.58579 9.91421C6.21071 9.53914 6 9.03043 6 8.5C6 7.58105 6.4576 6.84367 6.87037 6.3621C7.08014 6.11738 7.28891 5.9261 7.44553 5.79558C7.52418 5.73004 7.59058 5.67907 7.63862 5.64361C7.66267 5.62586 7.68218 5.61195 7.69642 5.60198L7.71375 5.58999L7.71929 5.58623L7.72125 5.58491L7.72202 5.5844L7.72235 5.58417Z" fill="#85909A"/>
<path fill-rule="evenodd" clip-rule="evenodd" d="M8.26205 1.57417L8 2L7.73795 1.57417C7.89865 1.47528 8.10135 1.47528 8.26205 1.57417ZM8 2.60294C7.93941 2.64601 7.87007 2.69656 7.79382 2.75424C7.50407 2.97341 7.11879 3.29218 6.73516 3.69057C5.95358 4.50221 5.25 5.56963 5.25 6.75C5.25 7.47935 5.53973 8.17882 6.05546 8.69454C6.57118 9.21027 7.27065 9.5 8 9.5C8.72935 9.5 9.42882 9.21027 9.94454 8.69454C10.4603 8.17882 10.75 7.47935 10.75 6.75C10.75 5.56963 10.0464 4.50221 9.26484 3.69057C8.88121 3.29218 8.49593 2.97341 8.20618 2.75424C8.12993 2.69656 8.06059 2.64601 8 2.60294ZM7.73795 1.57417C7.7381 1.57408 7.73795 1.57417 8 2C8.26205 1.57417 8.2619 1.57408 8.26205 1.57417L8.26367 1.57517L8.26647 1.57691L8.27555 1.58259C8.28312 1.58735 8.2937 1.59406 8.3071 1.60268C8.33387 1.61992 8.37192 1.64481 8.41962 1.67704C8.51497 1.74148 8.64922 1.8355 8.80945 1.9567C9.12907 2.19847 9.55629 2.55157 9.98516 2.99693C10.8286 3.87279 11.75 5.18037 11.75 6.75C11.75 7.74456 11.3549 8.69839 10.6516 9.40165C9.94839 10.1049 8.99456 10.5 8 10.5C7.00544 10.5 6.05161 10.1049 5.34835 9.40165C4.64509 8.69839 4.25 7.74456 4.25 6.75C4.25 5.18037 5.17142 3.87279 6.01484 2.99693C6.44371 2.55157 6.87093 2.19847 7.19055 1.9567C7.35078 1.8355 7.48503 1.74148 7.58038 1.67704C7.62808 1.64481 7.66613 1.61992 7.6929 1.60268C7.7063 1.59406 7.71688 1.58735 7.72445 1.58259L7.73353 1.57691L7.73633 1.57517L7.73795 1.57417Z" fill="#85909A"/>
</svg>
