<svg width="16" height="16" viewBox="0 0 16 16" fill="none" xmlns="http://www.w3.org/2000/svg">
<path fill-rule="evenodd" clip-rule="evenodd" d="M2 3C2 2.44772 2.44772 2 3 2H13C13.5523 2 14 2.44772 14 3V13C14 13.5523 13.5523 14 13 14H3C2.44772 14 2 13.5523 2 13V3ZM13 3H3V13H13V3Z" fill="#EFEFEC"/>
<path fill-rule="evenodd" clip-rule="evenodd" d="M5.75 8.5C6.02614 8.5 6.25 8.72386 6.25 9V13.5C6.25 13.7761 6.02614 14 5.75 14C5.47386 14 5.25 13.7761 5.25 13.5V9C5.25 8.72386 5.47386 8.5 5.75 8.5Z" fill="#EFEFEC"/>
<path fill-rule="evenodd" clip-rule="evenodd" d="M10.25 8.5C10.5261 8.5 10.75 8.72386 10.75 9V13.5C10.75 13.7761 10.5261 14 10.25 14C9.97386 14 9.75 13.7761 9.75 13.5V9C9.75 8.72386 9.97386 8.5 10.25 8.5Z" fill="#EFEFEC"/>
<path fill-rule="evenodd" clip-rule="evenodd" d="M9 2C9.27614 2 9.5 2.22386 9.5 2.5V8.5H11V2.5C11 2.22386 11.2239 2 11.5 2C11.7761 2 12 2.22386 12 2.5V9C12 9.27614 11.7761 9.5 11.5 9.5H9C8.72386 9.5 8.5 9.27614 8.5 9V2.5C8.5 2.22386 8.72386 2 9 2Z" fill="#EFEFEC"/>
<path fill-rule="evenodd" clip-rule="evenodd" d="M4.5 2C4.77614 2 5 2.22386 5 2.5V8.5H6.5V2.5C6.5 2.22386 6.72386 2 7 2C7.27614 2 7.5 2.22386 7.5 2.5V9C7.5 9.27614 7.27614 9.5 7 9.5H4.5C4.22386 9.5 4 9.27614 4 9V2.5C4 2.22386 4.22386 2 4.5 2Z" fill="#EFEFEC"/>
</svg>
