<svg width="24" height="24" viewBox="0 0 24 24" fill="none" xmlns="http://www.w3.org/2000/svg">
<path fill-rule="evenodd" clip-rule="evenodd" d="M6.76971 2.4406C7.00282 2.31068 7.26636 2.24529 7.53317 2.25119C7.79941 2.25708 8.05926 2.33374 8.28605 2.47328C8.28654 2.47358 8.28702 2.47387 8.2875 2.47417L21.7717 10.7202C21.9922 10.8519 22.1749 11.0383 22.3022 11.2614C22.4305 11.4864 22.498 11.741 22.498 12C22.498 12.259 22.4305 12.5136 22.3022 12.7386C22.1749 12.9617 21.9922 13.1481 21.7717 13.2798L8.2875 21.5258C8.28694 21.5262 8.28638 21.5265 8.28582 21.5269C8.05908 21.6663 7.79931 21.7429 7.53317 21.7488C7.26636 21.7547 7.00282 21.6893 6.76971 21.5594C6.53661 21.4295 6.34239 21.2397 6.20708 21.0097C6.07178 20.7796 6.00029 20.5177 6 20.2508V3.74917C6.00029 3.4823 6.07178 3.22035 6.20708 2.99032C6.34239 2.76029 6.53661 2.57053 6.76971 2.4406ZM21.3844 11.3625L20.9976 11.9949L21.0025 11.992C21.0011 11.9928 21 11.994 20.9992 11.9954C20.9984 11.9968 20.998 11.9984 20.998 12C20.998 12.0016 20.9984 12.0032 20.9992 12.0046C21.0001 12.0061 21.0012 12.0072 21.0026 12.0081L21.3844 11.3625ZM20.9893 12L7.5 3.75083L7.5 20.2492L7.50246 20.2477L20.9893 12Z" fill="#EFEFEC"/>
</svg>
