<svg width="16" height="16" viewBox="0 0 16 16" fill="none" xmlns="http://www.w3.org/2000/svg">
<path fill-rule="evenodd" clip-rule="evenodd" d="M7 1.5C7.27614 1.5 7.5 1.72386 7.5 2V7L8.7 6.1C8.87778 5.96667 9.12222 5.96667 9.3 6.1L10.5 7V2C10.5 1.72386 10.7239 1.5 11 1.5C11.2761 1.5 11.5 1.72386 11.5 2V8C11.5 8.18939 11.393 8.36252 11.2236 8.44721C11.0542 8.53191 10.8515 8.51363 10.7 8.4L9 7.125L7.3 8.4C7.14849 8.51363 6.94579 8.53191 6.77639 8.44721C6.607 8.36252 6.5 8.18939 6.5 8V2C6.5 1.72386 6.72386 1.5 7 1.5Z" fill="#85909A"/>
<path d="M3.00001 13.5C2.99919 13.3028 3.03742 13.1074 3.11251 12.925C3.1876 12.7426 3.29806 12.577 3.43751 12.4375C3.57696 12.2981 3.74265 12.1876 3.92501 12.1125C4.10737 12.0374 4.3028 11.9992 4.50001 12H13V2.00001H4.50001C4.3028 1.99919 4.10737 2.03742 3.92501 2.11251C3.74265 2.1876 3.57696 2.29806 3.43751 2.43751C3.29806 2.57696 3.1876 2.74265 3.11251 2.92501C3.03742 3.10737 2.99919 3.3028 3.00001 3.50001V13.5Z" stroke="#85909A" stroke-linecap="round" stroke-linejoin="round"/>
<path fill-rule="evenodd" clip-rule="evenodd" d="M3 13C3.27614 13 3.5 13.2239 3.5 13.5H12C12.2761 13.5 12.5 13.7239 12.5 14C12.5 14.2761 12.2761 14.5 12 14.5H3C2.72386 14.5 2.5 14.2761 2.5 14V13.5C2.5 13.2239 2.72386 13 3 13Z" fill="#85909A"/>
</svg>
