<svg width="24" height="24" viewBox="0 0 24 24" fill="none" xmlns="http://www.w3.org/2000/svg">
<path fill-rule="evenodd" clip-rule="evenodd" d="M2.68933 4.93934C2.97064 4.65804 3.35217 4.5 3.74999 4.5H20.25C20.6478 4.5 21.0293 4.65804 21.3107 4.93934C21.592 5.22065 21.75 5.60218 21.75 6V18C21.75 18.3978 21.592 18.7794 21.3107 19.0607C21.0293 19.342 20.6478 19.5 20.25 19.5H7.78729L7.68992 19.5342L4.70628 22.0372C4.48775 22.218 4.22241 22.3332 3.94107 22.3693C3.65973 22.4055 3.37391 22.3611 3.11678 22.2414C2.85964 22.1216 2.64172 21.9314 2.48831 21.6929C2.33489 21.4543 2.25226 21.1771 2.25002 20.8934L2.24997 20.8875L2.24999 6C2.24999 5.60217 2.40803 5.22064 2.68933 4.93934ZM20.25 6L3.74999 6V20.8815L6.83047 18.2973C6.89963 18.2393 6.9787 18.1942 7.06388 18.1643L7.41075 18.0424C7.49064 18.0143 7.5747 18 7.65937 18H20.25V6Z" fill="#EFEFEC"/>
<path fill-rule="evenodd" clip-rule="evenodd" d="M8.25 10.5C8.25 10.0858 8.58579 9.75 9 9.75H15C15.4142 9.75 15.75 10.0858 15.75 10.5C15.75 10.9142 15.4142 11.25 15 11.25H9C8.58579 11.25 8.25 10.9142 8.25 10.5Z" fill="#EFEFEC"/>
<path fill-rule="evenodd" clip-rule="evenodd" d="M8.25 13.5C8.25 13.0858 8.58579 12.75 9 12.75H15C15.4142 12.75 15.75 13.0858 15.75 13.5C15.75 13.9142 15.4142 14.25 15 14.25H9C8.58579 14.25 8.25 13.9142 8.25 13.5Z" fill="#EFEFEC"/>
</svg>
